<?xml version="1.0" encoding="utf-8"?>
<!-- Generator: Adobe Illustrator 25.0.0, SVG Export Plug-In . SVG Version: 6.00 Build 0)  -->
<svg version="1.1" id="Camada_1" xmlns="http://www.w3.org/2000/svg" xmlns:xlink="http://www.w3.org/1999/xlink" x="0px" y="0px"
	 viewBox="0 0 1920 1080" style="enable-background:new 0 0 1920 1080;" xml:space="preserve">
<style type="text/css">
	.st0{fill:#27272A;}
	.st1{fill:#FFFFFF;}
	.st2{font-family:'Impact';}
	.st3{font-size:55px;}
	.st4{letter-spacing:1;}
</style>
<polygon class="st0" points="842.27,366.89 1061.27,384.11 1129.27,641.89 910.27,624.89 "/>
<path class="st0" d="M912.27,639.89c68,5.67,136,11.33,204,17c-1.84,0.89-19.82,10.01-23,30c-2.03,12.77,3.13,22.74,5,26
	c-72-6.33-144-12.67-216-19c-0.67-4.96-0.87-11.6,1-19C888.81,652.92,907.96,642.17,912.27,639.89z"/>
<path class="st0" d="M828.94,366.89l4.33,17l4,16l53,201l3,14l5,18c-5.32,3.1-14.64,9.51-22,21c-10.82,16.9-10.43,33.92-10,40
	c-3.33-10.67-6.67-21.33-10-32l-6-25l-48-175l-8-31c-1-5.67-2-11.33-3-17c1.9-6.89,6.33-19.26,17-31
	C815.65,374.77,823.42,369.8,828.94,366.89z"/>
<text transform="matrix(0.9804 -0.1969 0.1969 0.9804 876.9203 497.1615)"><tspan x="0" y="0" class="st1 st2 st3 st4">BIBLIOTE</tspan><tspan x="23.56" y="66" class="st1 st2 st3 st4">CANDO</tspan></text>
</svg>
